<?xml version="1.0" standalone="no"?>
<!DOCTYPE svg PUBLIC "-//W3C//DTD SVG 20010904//EN"
 "http://www.w3.org/TR/2001/REC-SVG-20010904/DTD/svg10.dtd">
<svg version="1.0" xmlns="http://www.w3.org/2000/svg"
 width="340.000000pt" height="340.000000pt" viewBox="0 0 340.000000 340.000000"
 preserveAspectRatio="xMidYMid meet">
<metadata>
Created by potrace 1.14, written by Peter Selinger 2001-2017
</metadata>
<g transform="translate(0.000000,340.000000) scale(0.100000,-0.100000)"
fill="#000000" stroke="none">
<path d="M1650 2904 c-22 -22 -44 -29 -77 -25 -7 1 -13 -6 -13 -16 -1 -17 -2
-17 -15 1 -11 14 -15 16 -15 5 0 -12 -2 -12 -10 1 -8 12 -10 11 -10 -7 0 -34
-17 -28 -26 10 l-7 32 -9 -28 c-5 -15 -14 -24 -19 -21 -6 3 -21 -7 -35 -22
-20 -20 -25 -35 -22 -61 4 -33 -8 -45 -18 -18 -9 22 -26 7 -19 -16 7 -22 -14
-26 -33 -7 -9 9 -12 9 -12 -3 0 -8 21 -35 48 -60 50 -47 85 -88 65 -75 -15 8
-17 -5 -4 -19 4 -6 13 -24 19 -42 9 -26 8 -31 -4 -26 -26 10 -14 -12 32 -59
26 -27 55 -48 66 -48 18 0 16 5 -14 48 l-34 47 1 132 c0 73 5 136 10 140 4 4
5 0 2 -10 -6 -15 -3 -17 13 -12 15 5 18 3 14 -9 -4 -10 5 -31 20 -50 28 -37
33 -52 15 -40 -7 4 -10 2 -8 -5 2 -6 26 -28 54 -49 27 -20 48 -41 48 -47 -1
-5 5 -17 13 -26 11 -12 12 -18 3 -21 -6 -2 -11 -17 -11 -33 0 -28 -2 -27 -57
31 -31 32 -64 70 -74 84 l-18 25 6 -30 c3 -16 7 -40 9 -52 5 -33 40 -88 57
-88 8 0 21 -7 30 -16 8 -8 36 -26 61 -38 26 -12 49 -28 52 -36 3 -8 16 -15 28
-15 13 0 29 -4 36 -9 14 -9 62 8 62 22 0 4 7 7 15 7 8 0 15 5 15 10 0 6 5 9
12 8 7 -2 15 11 18 27 6 28 7 29 14 8 9 -27 33 -30 53 -5 8 9 12 12 9 6 -4 -8
6 -12 28 -12 40 0 141 -65 150 -97 7 -27 60 -55 102 -55 36 0 45 13 17 25 -14
6 -7 11 27 19 l44 12 -32 13 c-18 7 -32 18 -32 23 0 5 6 6 13 1 18 -11 38 -13
32 -3 -3 5 -22 12 -42 16 -34 6 -35 7 -15 18 l22 11 -21 13 c-16 10 -20 21
-17 44 4 24 0 31 -19 39 -13 5 -32 5 -46 0 -57 -23 -70 -24 -73 -6 -1 8 5 19
14 25 15 8 15 9 1 10 -9 0 -24 -9 -34 -20 -10 -12 -25 -18 -32 -16 -7 3 -15 1
-18 -4 -4 -6 -1 -10 5 -10 6 0 8 -4 5 -10 -4 -6 -11 -5 -20 3 -11 10 -10 15 5
32 9 11 23 31 30 45 12 22 12 24 -3 12 -13 -11 -15 -10 -10 7 3 11 15 31 27
44 36 40 52 61 39 53 -19 -11 -16 4 5 27 16 19 16 19 -3 14 -11 -4 -27 -2 -35
3 -11 7 -11 10 -2 10 7 0 10 5 7 10 -3 6 0 10 8 10 8 0 18 7 21 16 8 21 8 26
-3 20 -13 -8 -34 21 -27 39 5 13 2 13 -20 -2 -23 -15 -26 -15 -41 0 -14 14
-15 22 -6 52 11 33 10 35 -5 23 -9 -7 -25 -24 -36 -36 -12 -16 -21 -20 -26
-12 -5 8 -11 6 -20 -5 -16 -20 -27 -19 -34 3 -2 9 -4 4 -3 -13 2 -25 7 -31 30
-33 15 -2 27 -7 27 -11 0 -14 -42 -21 -63 -10 -10 6 -41 9 -68 7 -32 -2 -50 1
-54 10 -3 7 5 12 21 12 18 0 28 7 31 21 6 21 7 21 20 4 16 -23 17 -16 2 22 -8
22 -12 25 -20 13 -8 -12 -12 -12 -16 -2 -2 6 -9 10 -13 7 -5 -3 -16 8 -25 25
-14 27 -25 35 -47 31 -5 0 -8 4 -8 11 0 6 -3 9 -6 5 -4 -3 -13 0 -21 8 -19 19
-23 18 -53 -11z m31 -7 c-10 -9 -11 -8 -5 6 3 10 9 15 12 12 3 -3 0 -11 -7
-18z m409 -174 c0 -5 -18 -15 -39 -24 -38 -16 -46 -11 -28 19 9 13 67 17 67 5z
m-447 -72 c-2 -3 -11 3 -20 12 -11 11 -13 17 -5 17 7 0 13 10 13 23 1 14 4 9
8 -13 4 -19 5 -37 4 -39z m102 -92 c4 -6 -7 -4 -23 5 -17 9 -34 21 -37 27 -4
6 7 4 23 -5 17 -9 34 -21 37 -27z m90 30 c4 -6 13 -8 20 -5 7 2 16 -1 18 -9 6
-15 -30 -28 -39 -14 -10 17 -24 9 -30 -16 -3 -14 -10 -25 -15 -25 -5 0 -4 11
1 25 8 20 5 27 -13 40 -21 15 -21 15 15 15 20 0 40 -5 43 -11z m149 -48 c-2
-3 -12 3 -22 13 -16 17 -16 18 5 5 12 -7 20 -15 17 -18z m-181 -73 c-3 -18
-12 -44 -20 -58 -13 -25 -13 -25 -13 13 0 20 4 37 9 37 5 0 11 9 14 20 8 33
17 23 10 -12z m34 -15 c-3 -10 -5 -4 -5 12 0 17 2 24 5 18 2 -7 2 -21 0 -30z"/>
<path d="M1156 2683 c4 -15 10 -35 14 -43 9 -17 55 -60 48 -45 -45 102 -76
145 -62 88z"/>
<path d="M1213 2693 c-10 -3 -10 -10 -2 -25 9 -16 8 -19 -1 -13 -22 14 24 -55
46 -70 19 -12 23 -12 28 0 3 8 0 17 -6 21 -7 5 -7 9 1 13 15 10 -49 81 -66 74z"/>
<path d="M1350 2640 c6 -11 13 -20 16 -20 2 0 0 9 -6 20 -6 11 -13 20 -16 20
-2 0 0 -9 6 -20z"/>
<path d="M2156 2625 c-11 -8 -15 -15 -9 -15 6 0 16 7 23 15 16 19 11 19 -14 0z"/>
<path d="M1350 2600 c0 -5 5 -10 11 -10 5 0 7 5 4 10 -3 6 -8 10 -11 10 -2 0
-4 -4 -4 -10z"/>
<path d="M995 2590 c3 -5 8 -10 11 -10 2 0 4 5 4 10 0 6 -5 10 -11 10 -5 0 -7
-4 -4 -10z"/>
<path d="M940 2575 c0 -2 14 -12 31 -20 24 -13 28 -19 19 -30 -8 -10 -7 -14 7
-18 16 -4 16 -5 1 -6 -10 -1 -15 -7 -12 -14 3 -8 -2 -20 -10 -27 -9 -7 -13
-16 -10 -21 3 -5 0 -9 -6 -9 -6 0 -8 -4 -5 -10 3 -5 -2 -10 -12 -11 -31 -2 28
-17 72 -19 41 -1 38 -4 -20 -26 -19 -6 -19 -7 3 -13 l24 -6 -23 -29 -22 -28
44 22 c24 13 56 31 72 42 41 29 32 3 -13 -38 -22 -20 -37 -40 -34 -46 3 -5 1
-15 -6 -23 -9 -11 -7 -16 9 -25 18 -9 20 -14 9 -33 -17 -31 -18 -48 -6 -70 6
-12 6 -17 0 -13 -5 3 -16 -1 -23 -10 -14 -17 -20 -86 -6 -77 5 3 7 13 4 23 -3
11 2 21 10 24 8 3 11 11 7 17 -4 8 -3 9 4 5 17 -10 63 39 56 58 -3 9 -2 16 4
16 5 0 13 17 17 38 4 20 15 51 26 68 16 27 25 31 59 31 22 0 47 6 55 13 13 11
14 10 9 -3 -5 -13 0 -16 26 -12 24 3 30 0 26 -10 -4 -11 2 -13 23 -9 16 4 32
1 35 -5 4 -6 0 -11 -10 -11 -13 0 -14 -3 -4 -15 7 -8 9 -15 6 -15 -4 0 0 -7 8
-16 9 -8 20 -13 25 -10 5 4 12 0 15 -6 3 -7 2 1 -1 17 -3 17 -10 32 -15 33
-18 8 -7 27 17 28 15 1 22 -2 19 -8 -5 -7 5 -9 25 -6 17 2 31 1 31 -2 0 -12
47 -3 74 15 14 10 26 20 26 24 0 4 -26 12 -57 19 -32 7 -70 15 -85 18 -16 4
-28 11 -28 18 0 8 -2 8 -8 -1 -5 -8 -21 -8 -62 3 -30 8 -82 14 -116 12 -41 -2
-68 2 -83 12 -23 15 -22 16 19 12 41 -4 41 -4 28 19 -7 13 -20 29 -28 36 -22
18 2 16 28 -3 44 -30 34 -5 -17 46 -28 28 -51 55 -51 60 0 5 -10 14 -21 21
-17 9 -20 8 -14 -2 6 -8 4 -11 -7 -7 -8 4 -20 3 -26 -1 -8 -5 -1 -21 24 -49
19 -23 33 -46 29 -51 -3 -6 4 -15 16 -21 11 -7 19 -14 16 -17 -10 -9 -47 22
-42 35 3 7 1 10 -5 7 -9 -5 -49 31 -51 47 -1 4 -2 14 -3 21 -1 14 -116 56
-116 42z m181 -52 l24 -27 -32 23 c-33 23 -40 31 -25 31 5 0 19 -12 33 -27z
m-46 -72 c3 -10 17 -23 32 -30 22 -10 24 -14 12 -22 -20 -13 -26 -11 -32 9 -3
9 -16 33 -28 52 -16 24 -18 31 -7 22 10 -8 20 -22 23 -31z m19 -310 c3 -5 -5
-8 -19 -8 -14 0 -22 3 -19 8 3 5 11 9 19 9 8 0 16 -4 19 -9z"/>
<path d="M1185 2550 c24 -27 26 -32 10 -26 -15 5 -13 0 9 -19 15 -15 30 -24
32 -22 10 10 -14 46 -46 73 l-35 28 30 -34z"/>
<path d="M2220 2570 c0 -5 7 -7 15 -4 8 4 15 8 15 10 0 2 -7 4 -15 4 -8 0 -15
-4 -15 -10z"/>
<path d="M1220 2555 c7 -8 20 -15 28 -15 13 0 12 3 -4 15 -25 19 -40 19 -24 0z"/>
<path d="M1310 2562 c0 -7 5 -12 10 -12 6 0 10 -9 10 -20 0 -11 7 -23 15 -26
8 -4 13 -9 10 -14 -2 -4 9 -20 25 -35 28 -26 32 -54 7 -38 -7 4 -6 -1 2 -11
13 -16 15 -16 24 -1 8 15 13 14 40 -12 16 -15 26 -22 22 -14 -6 11 -3 13 14 8
14 -3 21 -1 18 6 -2 7 -8 12 -13 12 -16 1 -54 29 -54 41 0 6 -11 21 -25 34
-14 13 -25 31 -25 41 0 9 -8 23 -17 30 -15 12 -16 12 -10 -4 7 -20 -4 -16 -35
11 -12 10 -18 11 -18 4z m101 -99 c13 -16 12 -17 -3 -4 -10 7 -18 15 -18 17 0
8 8 3 21 -13z"/>
<path d="M2183 2562 c-13 -2 -23 -8 -23 -13 0 -9 37 -3 49 7 8 7 -4 10 -26 6z"/>
<path d="M1635 2510 c3 -5 8 -10 11 -10 2 0 4 5 4 10 0 6 -5 10 -11 10 -5 0
-7 -4 -4 -10z"/>
<path d="M1310 2499 c0 -8 7 -24 15 -35 11 -14 14 -15 14 -4 0 8 -6 24 -14 34
-11 15 -15 16 -15 5z"/>
<path d="M1625 2490 c10 -11 20 -20 23 -20 3 0 -3 9 -13 20 -10 11 -20 20 -23
20 -3 0 3 -9 13 -20z"/>
<path d="M1420 2392 c0 -12 19 -26 26 -19 2 2 -2 10 -11 17 -9 8 -15 8 -15 2z"/>
<path d="M2218 2218 c24 -27 29 -44 10 -32 -10 6 -10 5 -1 -8 7 -8 10 -18 7
-21 -3 -3 2 -18 13 -34 22 -32 73 -145 73 -162 0 -6 4 -11 9 -11 16 0 5 73
-17 117 -26 51 -27 60 -5 42 15 -13 15 -12 4 10 -10 17 -10 22 -1 16 7 -4 21
-26 32 -49 16 -35 19 -37 15 -12 -4 22 0 30 14 33 22 6 22 8 9 34 -7 13 -7 19
0 19 19 0 10 19 -19 39 -18 13 -49 22 -84 25 -30 2 -61 7 -68 11 -8 5 -4 -3 9
-17z m60 -77 c3 -8 -1 -12 -9 -9 -7 2 -15 10 -17 17 -3 8 1 12 9 9 7 -2 15
-10 17 -17z"/>
<path d="M1550 2215 c0 -8 4 -15 9 -15 5 0 11 7 15 15 3 9 0 15 -9 15 -8 0
-15 -7 -15 -15z"/>
<path d="M984 2191 c-32 -42 -43 -65 -43 -91 0 -22 2 -20 21 15 11 22 34 54
51 72 26 27 27 32 10 31 -10 -1 -28 -13 -39 -27z"/>
<path d="M1073 2068 c-21 -23 -53 -91 -53 -112 0 -6 14 10 31 37 17 26 35 47
39 47 4 0 10 11 12 25 6 31 -2 32 -29 3z"/>
<path d="M1081 1972 c-6 -12 -11 -29 -11 -39 0 -15 2 -16 10 -3 8 13 10 13 10
-2 0 -9 -4 -20 -10 -23 -5 -3 -10 -15 -10 -27 0 -14 -5 -18 -15 -14 -9 3 -15
0 -15 -10 0 -8 4 -13 9 -9 5 3 13 0 17 -6 4 -7 3 -9 -4 -5 -6 3 -16 -2 -22
-11 -9 -14 -10 -6 -6 37 3 33 2 49 -3 41 -7 -11 -10 -10 -14 5 -2 10 -4 3 -4
-16 -1 -100 -11 -202 -20 -208 -6 -4 -14 -27 -18 -52 -7 -39 -9 -42 -16 -22
-18 48 -46 10 -30 -42 5 -17 14 -68 20 -114 14 -109 47 -173 65 -126 3 9 6 25
6 37 1 22 1 22 12 2 16 -29 16 -29 33 -15 13 11 15 9 15 -13 0 -17 -7 -28 -20
-32 -11 -3 -20 -11 -20 -17 0 -5 9 -12 20 -15 11 -3 20 -14 20 -25 0 -13 6
-18 18 -16 20 4 20 53 1 175 -9 54 -9 83 0 117 6 24 9 66 7 93 l-5 48 24 -64
c13 -34 36 -77 52 -94 15 -16 21 -28 13 -25 -12 4 -15 -4 -15 -43 0 -45 5 -54
28 -50 4 0 7 -4 7 -10 0 -6 7 -3 16 6 15 15 18 14 32 -6 15 -22 14 -24 -27
-59 -59 -51 -71 -79 -65 -150 3 -35 1 -61 -6 -65 -6 -3 -10 3 -10 14 0 12 -4
21 -9 21 -5 0 -12 10 -14 23 -2 12 -5 1 -6 -24 -2 -75 28 -252 47 -274 10 -11
24 -36 33 -55 9 -19 24 -53 35 -75 10 -22 18 -47 19 -55 0 -8 3 -20 8 -27 4
-6 4 -18 1 -27 -3 -9 -1 -16 5 -16 6 0 11 -4 11 -10 0 -15 -28 0 -33 18 -3 10
-5 -23 -6 -71 -1 -56 3 -86 9 -82 6 3 7 -1 4 -10 -4 -8 0 -22 7 -31 10 -12 10
-17 0 -23 -16 -10 -10 -63 9 -78 13 -11 13 -12 -3 -13 -10 0 -20 7 -23 15 -5
12 -10 13 -20 4 -8 -6 -12 -14 -10 -18 3 -4 1 -13 -5 -21 -7 -12 -9 -12 -9 4
0 17 -1 17 -26 1 l-25 -16 16 25 c22 34 5 33 -26 0 -13 -14 -38 -32 -56 -39
-17 -7 -51 -31 -75 -53 -63 -57 -130 -100 -248 -159 l-105 -53 332 0 332 0 -4
30 c-4 26 -1 30 21 30 16 0 23 4 18 11 -3 6 -15 8 -26 6 -31 -9 -12 5 26 18
32 11 35 10 40 -9 8 -30 7 -38 -4 -31 -9 6 -14 -8 -11 -28 1 -4 -7 -3 -18 2
-21 12 -32 5 -24 -15 4 -11 33 -14 134 -14 71 0 129 3 129 7 0 3 -7 14 -15 24
-14 15 -14 18 -1 32 9 9 13 22 10 30 -3 8 -1 18 5 22 7 3 8 0 5 -9 -4 -11 0
-16 11 -16 11 0 15 5 11 15 -5 13 10 20 37 16 4 0 7 7 8 16 0 11 3 13 6 6 2
-7 9 -13 14 -13 13 0 11 34 -3 49 -11 10 -9 11 6 5 15 -6 18 -4 14 8 -4 9 -2
20 4 26 7 7 4 22 -7 46 -14 30 -21 35 -39 30 -30 -9 -30 -9 -12 -45 20 -40 17
-43 -14 -18 -17 14 -21 22 -13 26 10 3 10 10 2 25 -6 11 -7 18 -1 14 5 -3 22
6 38 20 16 15 23 23 17 20 -7 -4 -13 -3 -13 3 0 6 -7 8 -15 5 -8 -4 -13 -10
-10 -14 3 -5 1 -11 -4 -14 -16 -10 -22 11 -6 24 7 6 12 17 9 24 -4 9 4 14 22
14 17 0 35 9 47 23 11 13 21 23 23 22 11 -8 24 -2 19 8 -4 6 2 17 13 25 12 8
19 21 16 28 -5 14 53 63 62 53 3 -3 18 8 33 24 16 16 31 29 34 29 2 0 19 14
37 30 18 17 39 30 47 30 8 0 11 4 8 10 -3 5 23 38 59 72 36 34 66 66 66 71 0
5 9 21 20 37 28 39 35 100 15 125 -16 19 -16 19 -11 -10 3 -16 3 -24 0 -17 -8
18 -22 14 -29 -9 -6 -18 -9 -19 -20 -8 -17 18 -29 59 -17 59 5 0 12 18 16 39
3 22 11 41 18 43 16 6 1 28 -19 28 -11 0 -14 -7 -10 -27 3 -18 -2 -33 -17 -48
-11 -11 -28 -32 -37 -45 -16 -24 -16 -24 -15 17 1 24 8 49 19 60 20 23 22 64
5 81 -9 9 -8 12 5 12 36 0 6 50 -59 98 -27 21 -53 47 -59 58 -11 23 -40 54
-50 54 -3 0 -4 -4 0 -9 3 -5 -2 -16 -10 -25 -12 -12 -13 -20 -5 -35 20 -38 10
-45 -20 -14 -26 27 -36 30 -70 27 -22 -2 -50 -12 -61 -23 -12 -11 -35 -25 -52
-32 -29 -12 -32 -11 -66 27 -30 33 -42 39 -68 37 -38 -3 -47 7 -38 46 6 26 33
36 51 18 12 -12 33 20 27 43 -5 18 -3 21 8 15 11 -6 11 -5 2 5 -15 17 -44 5
-37 -15 3 -8 2 -15 -4 -15 -13 0 -10 26 5 41 5 5 19 11 30 12 14 1 19 6 15 19
-2 10 -1 43 3 74 5 44 11 57 26 61 12 4 19 14 19 29 0 69 72 18 105 -74 27
-76 37 -92 68 -107 34 -17 50 -13 18 5 -43 23 -19 26 26 4 34 -18 63 -24 110
-24 116 0 186 49 227 159 14 36 26 75 28 86 4 27 38 33 38 7 0 -24 30 -52 57
-52 30 0 32 16 9 82 -14 42 -22 54 -27 42 -5 -17 -6 -17 -15 -1 -7 12 -49 27
-125 46 -93 24 -136 29 -225 29 -60 0 -129 -5 -154 -10 -104 -23 -183 -27
-220 -10 -84 37 -103 41 -209 36 -58 -2 -122 -8 -141 -14 -19 -5 -42 -10 -50
-10 -13 0 -13 1 0 10 10 7 11 10 2 10 -7 0 -15 -7 -18 -15 -4 -8 -14 -15 -23
-15 -13 0 -13 2 -2 9 9 6 10 10 2 12 -7 3 -13 32 -15 72 -4 76 -9 88 -25 59z
m1022 -175 c17 -8 41 -24 52 -36 40 -46 14 -200 -45 -256 -41 -39 -111 -55
-175 -40 -96 22 -137 57 -77 65 24 3 36 10 34 19 -6 29 96 85 141 76 31 -6 31
-5 12 10 -11 9 -27 20 -35 26 -13 7 -13 10 -1 18 12 8 9 12 -14 23 -23 10 -29
10 -33 0 -3 -9 -12 -5 -27 13 -19 20 -34 25 -69 25 -25 0 -56 -4 -70 -10 -28
-10 -33 -3 -13 23 7 11 28 18 53 19 40 1 107 27 74 28 -13 0 -13 1 0 11 19 13
150 4 193 -14z m-598 -23 c16 -10 22 -21 18 -32 -6 -15 -5 -15 11 -3 15 13 19
13 27 0 13 -20 11 -39 -4 -39 -23 0 -96 62 -90 76 6 18 9 17 38 -2z m-262 -52
c15 -16 13 -21 -28 -62 -24 -25 -44 -50 -45 -55 0 -20 52 -86 83 -106 24 -14
27 -19 13 -19 -10 0 -35 17 -56 38 -36 36 -60 101 -60 166 0 30 24 50 50 43
11 -3 18 -1 14 4 -10 16 12 9 29 -9z m441 -11 c3 -5 0 -14 -8 -20 -11 -9 -15
-7 -19 9 -5 20 16 29 27 11z m-354 -75 c0 -5 -7 -3 -15 4 -8 7 -12 17 -9 22 7
10 24 -9 24 -26z m660 14 c0 -11 -39 -24 -47 -16 -10 10 18 35 33 29 8 -3 14
-9 14 -13z m-983 -52 c-3 -8 -6 -5 -6 6 -1 11 2 17 5 13 3 -3 4 -12 1 -19z
m-3 -33 c17 0 18 -25 2 -31 -9 -3 -16 -13 -16 -22 0 -25 -7 -10 -14 31 -6 31
-5 37 6 31 7 -5 17 -9 22 -9z m66 -146 c0 -6 -4 -7 -10 -4 -5 3 -10 11 -10 16
0 6 5 7 10 4 6 -3 10 -11 10 -16z m808 -191 c7 2 12 -1 12 -7 0 -6 8 -11 18
-11 24 -1 62 -35 62 -57 0 -27 -16 -48 -25 -33 -4 7 -29 10 -67 8 -56 -3 -60
-4 -65 -30 -6 -31 -13 -34 -32 -15 -7 6 -12 8 -11 2 6 -30 -1 -37 -30 -31 -16
3 -30 1 -30 -4 0 -13 -116 -10 -135 3 -13 10 -14 15 -3 30 11 15 18 16 42 7
20 -7 32 -8 40 0 16 16 53 12 61 -7 6 -16 8 -15 20 7 11 20 11 26 -2 35 -12 9
-11 11 6 12 12 1 21 -4 21 -13 0 -15 9 -17 34 -8 15 6 15 8 -1 20 -17 13 -17
13 1 14 10 0 29 11 42 26 28 30 30 36 8 27 -14 -5 -16 -2 -10 20 5 20 3 27 -9
27 -8 0 -15 8 -15 18 1 13 7 10 28 -14 16 -16 34 -28 40 -26z m-638 -33 c0 -1
-7 -8 -15 -15 -13 -10 -15 -9 -15 8 0 15 5 20 15 16 8 -4 15 -7 15 -9z m785
-35 c3 -5 1 -10 -4 -10 -6 0 -11 5 -11 10 0 6 2 10 4 10 3 0 8 -4 11 -10z
m-477 -87 c2 -8 -5 -13 -17 -13 -12 0 -21 6 -21 16 0 18 31 15 38 -3z m367
-32 c3 -16 13 -35 21 -42 8 -6 14 -16 14 -21 0 -6 -8 -4 -17 3 -9 8 -14 9 -10
2 4 -6 2 -13 -3 -15 -6 -2 -12 -12 -14 -23 -2 -12 -10 -19 -20 -18 -12 0 -15
-4 -12 -14 4 -9 1 -13 -6 -11 -16 6 -33 -11 -42 -40 -8 -24 -26 -30 -26 -9 0
6 -21 24 -46 39 -61 38 -64 52 -18 94 22 19 32 32 24 28 -11 -5 -12 -4 -4 5
10 11 30 18 87 28 15 3 30 9 33 14 11 19 33 8 39 -20z m-435 -56 c29 -15 32
-19 34 -47 2 -21 -36 -15 -60 8 -48 49 -33 70 26 39z m210 -57 c0 -12 -3 -18
-7 -14 -11 10 -12 36 -2 36 5 0 9 -10 9 -22z m-428 -403 c0 -20 -3 -39 -6 -42
-3 -4 -6 15 -6 42 0 27 3 46 6 42 3 -3 6 -22 6 -42z m274 -175 c13 0 36 -39
29 -50 -4 -6 0 -10 8 -10 19 0 30 -27 14 -34 -8 -3 -7 -8 5 -16 32 -20 49 -43
43 -58 -3 -8 -1 -20 5 -27 8 -9 4 -12 -15 -13 -14 0 -28 5 -32 11 -3 6 -1 7 5
3 7 -4 12 -5 12 -2 0 2 3 11 6 19 3 10 -5 18 -25 25 -21 7 -29 16 -25 25 3 8
1 18 -5 22 -10 5 -16 -15 -12 -38 1 -5 -2 -6 -7 -3 -5 3 -9 22 -10 43 -1 21 2
34 6 28 4 -5 14 -11 22 -13 12 -3 13 -1 3 9 -7 7 -13 21 -13 31 0 10 -4 18
-10 18 -5 0 -10 -5 -10 -11 0 -8 -4 -9 -13 0 -8 6 -16 9 -18 6 -4 -4 -4 38 0
60 1 6 8 2 15 -7 7 -10 17 -18 22 -18z m57 16 c4 -10 1 -13 -8 -9 -8 3 -12 9
-9 14 7 12 11 11 17 -5z m-323 -80 c-7 -7 -14 -6 -21 1 -9 9 -7 12 9 10 14 -1
18 -5 12 -11z m430 -46 c0 -5 -5 -10 -11 -10 -5 0 -7 5 -4 10 3 6 8 10 11 10
2 0 4 -4 4 -10z m-103 -66 c-3 -3 -12 -4 -19 -1 -8 3 -5 6 6 6 11 1 17 -2 13
-5z m-244 -33 c-5 -21 -29 -35 -44 -25 -16 9 -10 26 7 20 15 -6 15 -4 3 11
-12 15 -12 16 4 10 9 -3 17 -2 17 4 0 6 4 8 9 5 5 -3 7 -15 4 -25z m-108 9 c3
-5 1 -10 -4 -10 -6 0 -11 5 -11 10 0 6 2 10 4 10 3 0 8 -4 11 -10z m55 -100
c0 -5 -2 -10 -4 -10 -3 0 -8 5 -11 10 -3 6 -1 10 4 10 6 0 11 -4 11 -10z"/>
<path d="M1785 890 c20 -22 35 -26 35 -10 0 6 -7 10 -15 10 -8 0 -15 5 -15 10
0 6 -5 10 -12 10 -6 0 -3 -9 7 -20z"/>
<path d="M1045 1949 c-4 -6 -5 -12 -2 -15 2 -3 7 2 10 11 7 17 1 20 -8 4z"/>
<path d="M946 1764 c-8 -22 -6 -85 4 -109 7 -17 9 -16 11 10 6 105 1 141 -15
99z"/>
<path d="M2382 1546 c-18 -17 -21 -29 -16 -54 8 -38 20 -34 33 11 5 18 12 40
16 50 10 23 -5 21 -33 -7z"/>
<path d="M2286 1428 c-9 -36 -8 -40 17 -36 16 2 22 10 22 28 0 33 -30 39 -39
8z"/>
<path d="M1590 1400 c0 -5 5 -10 10 -10 6 0 10 5 10 10 0 6 -4 10 -10 10 -5 0
-10 -4 -10 -10z"/>
<path d="M1625 1380 c-4 -12 -15 -24 -25 -28 -30 -12 -8 -52 30 -52 29 0 30 1
24 42 -6 51 -19 68 -29 38z"/>
<path d="M2325 1350 c-3 -5 -1 -10 4 -10 6 0 11 5 11 10 0 6 -2 10 -4 10 -3 0
-8 -4 -11 -10z"/>
<path d="M2100 1129 c0 -11 5 -17 10 -14 6 3 10 13 10 21 0 8 -4 14 -10 14 -5
0 -10 -9 -10 -21z"/>
<path d="M2007 526 c-6 -15 1 -26 15 -26 4 0 8 9 8 20 0 23 -15 27 -23 6z"/>
<path d="M1975 440 c3 -5 8 -10 11 -10 2 0 4 5 4 10 0 6 -5 10 -11 10 -5 0 -7
-4 -4 -10z"/>
<path d="M2350 356 c52 -57 12 -179 -99 -298 l-53 -58 418 0 419 0 -44 20
c-23 11 -47 17 -52 14 -5 -3 -9 0 -9 5 0 6 -9 11 -21 11 -11 0 -33 9 -49 20
-15 11 -30 17 -34 13 -3 -3 -6 -1 -6 5 0 7 -11 12 -25 12 -14 0 -25 4 -25 9 0
5 -12 14 -27 19 -16 6 -44 21 -63 33 l-35 23 20 -23 20 -24 -23 12 c-12 7 -28
21 -35 32 -6 11 -27 29 -45 40 -18 12 -51 36 -73 55 -43 36 -73 47 -46 16 29
-32 24 -34 -35 -17 -20 5 -28 14 -28 29 0 21 -27 53 -60 71 -8 5 -4 -4 10 -19z"/>
</g>
</svg>
